# xmcd
#
# Track frame offsets:
#	150
#	11395
#	23668
#	36851
#	49565
#	62788
#	73379
#	85486
#	96241
#	109913
#	120394
#	131415
#	144322
#	168763
#
# Disc length: 2413 seconds
#
# Revision: 1
# Processed by: cddbd v1.5.1PL2 Copyright (c) Steve Scherf et al.
# Submitted via: audiograbber 1.82.02
#
DISCID=b6096b0e
DTITLE=Ralph Stanley - Shine On
DYEAR=2005
DGENRE=Bluegrass
TTITLE0=King of All Kings
TTITLE1=The Roses Will Bloom
TTITLE2=The Old Church Yard
TTITLE3=This Little Light of Mine
TTITLE4=My Man Trial Is Yet To Come
TTITLE5=Sing Songs About Jesus
TTITLE6=Palms of Victory
TTITLE7=On A High, High Mountain
TTITLE8=The Lowest Valley
TTITLE9=Swing Low, Sweet Chariot
TTITLE10=I'll Fly Away
TTITLE11=Shine On
TTITLE12=Why Should We Start and Fear to Die
TTITLE13=Let Your Light Shine Out
EXTD=
EXTT0=
EXTT1=
EXTT2=
EXTT3=
EXTT4=
EXTT5=
EXTT6=
EXTT7=
EXTT8=
EXTT9=
EXTT10=
EXTT11=
EXTT12=
EXTT13=
PLAYORDER=
